# xmcd CD database file
# Copyright (C) 1996 Ti Kan
#
# Track frame offsets:
# 	167
# 	21625
# 	34977
# 	48622
# 	68032
# 	88657
# 	101770
# 	121827
# 	135435
# 	156962
# 	176877
# 	195285
# 	208485
# 	224460
# 	252285
#
# Disc length: 3719 seconds
#
# Revision: 1
# Processed by: cddbd v1.4b41PL1 Copyright (c) Steve Scherf et al.
# Submitted via: DiscPlay 3.4.1
#
DISCID=e40e850f
DTITLE=Muddy Waters - Goodbye Newport Blues
DYEAR=1900
DGENRE=
TTITLE0=I Got My Brand On You
TTITLE1=Hoochie Coochie Man
TTITLE2=Baby Please Don't Go
TTITLE3=Soon Forgotten
TTITLE4=Tiger In You Tank
TTITLE5=I Feel So Good
TTITLE6=I've Got My Mojo Working Pt. 1
TTITLE7=I've Got My Mojo Working Pt. 2
TTITLE8=Goodbye Newport Blues
TTITLE9=Wee Wee Baby
TTITLE10=Sitting And Thinking
TTITLE11=Clouds In My Heart
TTITLE12=Nineteen Years Old
TTITLE13=Long Distance Call
TTITLE14=The Same Thing
EXTD=
EXTT0=
EXTT1=
EXTT2=
EXTT3=
EXTT4=
EXTT5=
EXTT6=
EXTT7=
EXTT8=
EXTT9=
EXTT10=
EXTT11=
EXTT12=
EXTT13=
EXTT14=
PLAYORDER=
